<svg xmlns="http://www.w3.org/2000/svg" width="16" height="16" viewBox="0 0 16 16">
    <path fill="#124F8C" fill-rule="nonzero" d="M8 0a8 8 0 1 1 0 16A8 8 0 0 1 8 0zm0 14.5a6.5 6.5 0 1 0 0-13 6.5 6.5 0 0 0 0 13zm2.5-5.111c.001 1.145-.96 1.754-2.143 1.909V12h-.714v-.665c-.74-.013-1.504-.177-2.143-.485l.325-1.096c.683.248 1.591.51 2.304.36.82-.174.988-.962.081-1.34-.665-.29-2.699-.537-2.699-2.163 0-.908.743-1.722 2.132-1.9V4h.714v.679a7.014 7.014 0 0 1 1.745.28l-.258 1.098c-.549-.18-1.155-.343-1.745-.31-1.064.058-1.158.918-.415 1.278 1.222.536 2.816.934 2.816 2.364z"/>
</svg>
