<svg xmlns="http://www.w3.org/2000/svg" width="16" height="16" viewBox="0 0 16 16">
    <path fill="#124F8C" fill-rule="nonzero" d="M15 7v1h-2a5.1 5.1 0 0 0 .03-.496c0-.173-.013-.339-.028-.503H15V7zM7.5 1.993V0h1v2a4.05 4.05 0 0 0-1-.007zm4.5 1.3L13.213 2l.787.681L12.762 4A4.268 4.268 0 0 0 12 3.294zM3.238 4L2 2.681 2.787 2 4 3.294A4.295 4.295 0 0 0 3.238 4zM3 8H1V7h1.998a5.81 5.81 0 0 0-.028.504c0 .17.014.333.03.496zm6.6 6c.22 0 .4.448.4 1s-1.18 1-1.4 1H7.4c-.22 0-1.4-.448-1.4-1s.18-1 .4-1h3.2zM12 6.961c0 2.45-2.143 4.106-2.143 6.039H6.143C6.143 11.067 4 9.41 4 6.961 4 4.406 5.999 3 7.998 3 9.998 3 12 4.408 12 6.961zM8.8 11.75c.071-.234.16-.47.268-.714.183-.414.238-.517.769-1.47.668-1.2.913-1.847.913-2.605 0-1.639-1.199-2.711-2.752-2.711-1.552 0-2.748 1.07-2.748 2.711 0 .758.245 1.406.913 2.605.53.953.586 1.056.769 1.47.107.243.197.48.267.714h1.602z"/>
</svg>
