<svg xmlns="http://www.w3.org/2000/svg" width="16" height="16" viewBox="0 0 16 16">
    <path fill="#124F8C" fill-rule="nonzero" d="M13.347 7.395a5.967 5.967 0 0 0-.344-.828l-1.636.738c.145.262.26.54.345.828l1.635-.738zm-8.382-.602c.181-.236.387-.45.613-.638l-1.26-1.312c-.219.196-.425.41-.612.638l1.26 1.312zm1.144-1.01a3.76 3.76 0 0 1 .798-.348l-.689-1.713a5.575 5.575 0 0 0-.799.35l.69 1.711zm-1.84 2.411c.081-.29.192-.57.332-.833L2.955 6.65a5.944 5.944 0 0 0-.332.833l1.646.711zm6.29-4.133a5.53 5.53 0 0 0-.8-.346L9.076 5.43c.278.083.547.2.8.346l.683-1.715zm1.734 1.42a5.892 5.892 0 0 0-.612-.638l-1.26 1.312c.226.188.431.403.612.638l1.26-1.312zM8.432 3.44a5.297 5.297 0 0 0-.866 0v1.856a3.778 3.778 0 0 1 .866 0V3.441zM8 13a1.562 1.562 0 0 1-.755-2.93L8 6.334l.755 3.737A1.562 1.562 0 0 1 8 13zm8-4c0 1.456-.39 2.822-1.073 4l-1.158-.67c.568-.98.898-2.115.898-3.33A6.667 6.667 0 1 0 1.333 9c0 1.215.33 2.35.898 3.33L1.073 13A7.948 7.948 0 0 1 0 9c0-4.411 3.589-8 8-8s8 3.589 8 8z"/>
</svg>
