<svg xmlns="http://www.w3.org/2000/svg" xmlns:xlink="http://www.w3.org/1999/xlink" width="188" height="75" viewBox="0 0 188 75">
    <defs>
        <path id="b" d="M79 7l7-7 7 7h73a6 6 0 0 1 6 6v26a6 6 0 0 1-6 6H6a6 6 0 0 1-6-6V13a6 6 0 0 1 6-6h73z"/>
        <filter id="a" width="115.1%" height="157.8%" x="-7.6%" y="-24.4%" filterUnits="objectBoundingBox">
            <feOffset dy="2" in="SourceAlpha" result="shadowOffsetOuter1"/>
            <feGaussianBlur in="shadowOffsetOuter1" result="shadowBlurOuter1" stdDeviation="4"/>
            <feComposite in="shadowBlurOuter1" in2="SourceAlpha" operator="out" result="shadowBlurOuter1"/>
            <feColorMatrix in="shadowBlurOuter1" values="0 0 0 0 0 0 0 0 0 0 0 0 0 0 0 0 0 0 0.2 0"/>
        </filter>
    </defs>
    <g fill="none" fill-rule="evenodd">
        <g transform="translate(8 20)">
            <use fill="#000" filter="url(#a)" xlink:href="#b"/>
            <path fill="#FFF" fill-opacity=".9" stroke="#47A2D6" stroke-linejoin="square" stroke-opacity=".5" d="M86 .707L79.207 7.5H6A5.5 5.5 0 0 0 .5 13v26A5.5 5.5 0 0 0 6 44.5h160a5.5 5.5 0 0 0 5.5-5.5V13a5.5 5.5 0 0 0-5.5-5.5H92.793L86 .707z"/>
        </g>
        <text fill="#3B4659" font-family="PostGrotesk-Book, Post Grotesk" font-size="14" font-weight="300" transform="translate(8 20)">
            <tspan x="16" y="31">Password: aowijr028u!</tspan>
        </text>
        <text fill="#7E9FC0" font-family="PostGrotesk-Medium, Post Grotesk" font-size="12" font-weight="400" letter-spacing=".5" transform="translate(8)">
            <tspan x="69" y="12">COPY</tspan>
        </text>
        <g fill="#124F8C" fill-rule="nonzero">
            <path d="M65.5 5.333H65V3.81C65 1.714 63.062 0 61 0c-2.063 0-4 1.714-4 3.81v1.523h-.5c-.825 0-1.5.686-1.5 1.524v7.62c0 .837.675 1.523 1.5 1.523h9c.825 0 1.5-.686 1.5-1.524V6.857c0-.838-.675-1.524-1.5-1.524zm-2.5 0h-4V3.81C59 2.514 59.725 2 61 2s2 .514 2 1.81v1.523z"/>
        </g>
    </g>
</svg>
