<svg xmlns="http://www.w3.org/2000/svg" xmlns:xlink="http://www.w3.org/1999/xlink" width="16" height="10" viewBox="0 0 16 10">
    <defs>
        <path id="a" d="M0 8a8 8 0 1 1 16 0H0z"/>
    </defs>
    <g fill="none" fill-rule="evenodd">
        <g transform="matrix(-1 0 0 1 16 0)">
            <mask id="b" fill="#fff">
                <use xlink:href="#a"/>
            </mask>
            <path fill="#20A187" d="M0 0h8v8H0z" mask="url(#b)" opacity=".25"/>
        </g>
        <path fill="#20A187" d="M1 8a7 7 0 0 1 14 0h-3v1h4V8A8 8 0 1 0 0 8v1h4V8H1zm8.823-.823L12 5l-1-1-2.177 2.177a2 2 0 1 0 1 1z"/>
    </g>
</svg>
