<svg xmlns="http://www.w3.org/2000/svg" width="60" height="60" viewBox="0 0 60 60">
    <g fill="none" fill-rule="nonzero">
        <g fill="#E01E5A">
            <path d="M12.774 37.839c0 3.435-2.806 6.242-6.242 6.242-3.435 0-6.242-2.807-6.242-6.242 0-3.436 2.807-6.242 6.242-6.242h6.242v6.242zM15.92 37.839c0-3.436 2.806-6.242 6.241-6.242 3.436 0 6.242 2.806 6.242 6.242v15.629c0 3.435-2.806 6.242-6.242 6.242-3.435 0-6.242-2.807-6.242-6.242v-15.63z"/>
        </g>
        <g fill="#36C5F0">
            <path d="M22.161 12.774c-3.435 0-6.242-2.806-6.242-6.242 0-3.435 2.807-6.242 6.242-6.242 3.436 0 6.242 2.807 6.242 6.242v6.242h-6.242zM22.161 15.92c3.436 0 6.242 2.806 6.242 6.241 0 3.436-2.806 6.242-6.242 6.242H6.532c-3.435 0-6.242-2.806-6.242-6.242 0-3.435 2.807-6.242 6.242-6.242h15.63z"/>
        </g>
        <g fill="#2EB67D">
            <path d="M47.226 22.161c0-3.435 2.806-6.242 6.242-6.242 3.435 0 6.242 2.807 6.242 6.242 0 3.436-2.807 6.242-6.242 6.242h-6.242v-6.242zM44.08 22.161c0 3.436-2.806 6.242-6.241 6.242-3.436 0-6.242-2.806-6.242-6.242V6.532c0-3.435 2.806-6.242 6.242-6.242 3.435 0 6.242 2.807 6.242 6.242v15.63z"/>
        </g>
        <g fill="#ECB22E">
            <path d="M37.839 47.226c3.435 0 6.242 2.806 6.242 6.242 0 3.435-2.807 6.242-6.242 6.242-3.436 0-6.242-2.807-6.242-6.242v-6.242h6.242zM37.839 44.08c-3.436 0-6.242-2.806-6.242-6.241 0-3.436 2.806-6.242 6.242-6.242h15.629c3.435 0 6.242 2.806 6.242 6.242 0 3.435-2.807 6.242-6.242 6.242h-15.63z"/>
        </g>
    </g>
</svg>
